<svg width="44" height="44" viewBox="0 0 44 44" fill="none" xmlns="http://www.w3.org/2000/svg">
<path d="M37.1855 18.986H21.9193V25.3128H30.7047C29.887 29.3333 26.4642 31.6433 21.9193 31.6433C20.6476 31.6455 19.388 31.3966 18.2127 30.9109C17.0374 30.4252 15.9695 29.7122 15.0703 28.8129C14.1712 27.9135 13.4584 26.8455 12.9729 25.6701C12.4874 24.4947 12.2387 23.235 12.2412 21.9633C12.239 20.6918 12.4878 19.4323 12.9734 18.2571C13.459 17.0819 14.1718 16.0141 15.071 15.115C15.9701 14.2158 17.0379 13.503 18.2131 13.0174C19.3883 12.5318 20.6478 12.283 21.9193 12.2852C24.2275 12.2852 26.3138 13.1047 27.951 14.4448L32.7177 9.67999C29.8137 7.14816 26.0902 5.58616 21.9193 5.58616C19.7666 5.57987 17.634 5.99923 15.6439 6.82012C13.6539 7.64101 11.8458 8.84724 10.3236 10.3694C8.80141 11.8916 7.59518 13.6997 6.77429 15.6898C5.9534 17.6798 5.53404 19.8125 5.54033 21.9652C5.53379 24.1179 5.95299 26.2507 6.77379 28.2409C7.5946 30.231 8.80082 32.0392 10.3231 33.5614C11.8453 35.0837 13.6535 36.2899 15.6436 37.1107C17.6338 37.9315 19.7666 38.3507 21.9193 38.3442C30.1088 38.3442 37.5558 32.3877 37.5558 21.9652C37.5558 20.9972 37.4073 19.954 37.1855 18.986Z" fill="#DD4D3F"/>
</svg>
