<svg width="292" height="220" viewBox="0 0 292 220" fill="none" xmlns="http://www.w3.org/2000/svg">
<path d="M146 186.075C188.03 186.075 222.103 152.015 222.103 110C222.103 67.9848 188.03 33.9248 146 33.9248C103.97 33.9248 69.8975 67.9848 69.8975 110C69.8975 152.015 103.97 186.075 146 186.075Z" fill="white"/>
<path d="M146 186.44C130.876 186.44 116.092 181.957 103.517 173.558C90.9419 165.158 81.1409 153.22 75.3532 139.252C69.5656 125.285 68.0513 109.915 71.0018 95.0873C73.9523 80.2593 81.2351 66.639 91.9293 55.9487C102.623 45.2583 116.249 37.9781 131.082 35.0287C145.915 32.0792 161.29 33.593 175.263 39.3786C189.235 45.1641 201.178 54.9616 209.58 67.5322C217.983 80.1027 222.467 94.8816 222.467 110C222.444 130.266 214.38 149.695 200.045 164.026C185.71 178.356 166.273 186.417 146 186.44ZM146 34.2896C131.021 34.2896 116.377 38.73 103.923 47.0491C91.4675 55.3683 81.7601 67.1926 76.0277 81.0269C70.2953 94.8612 68.7954 110.084 71.7178 124.77C74.6401 139.457 81.8534 152.947 92.4455 163.535C103.038 174.124 116.533 181.334 131.224 184.256C145.916 187.177 161.144 185.678 174.983 179.947C188.823 174.217 200.651 164.513 208.973 152.062C217.296 139.612 221.738 124.974 221.738 110C221.716 89.9269 213.73 70.682 199.531 56.4882C185.332 42.2943 166.08 34.3109 146 34.2896Z" fill="#D1D3D4"/>
<path d="M208.554 169.065C208.554 169.065 200.641 150.391 198.56 143.094C197.286 138.113 196.759 132.97 196.998 127.835L191.377 99.178C191.377 99.178 151.84 78.8694 140.16 71.8128C128.48 64.7562 114.355 53.8101 110.23 56.2402C106.106 58.6702 106.821 64.0265 111.69 69.3755C113.69 71.5647 116.399 73.8633 118.056 76.2715C119.406 78.2272 121.1 84.3935 119.472 86.5827C117.53 89.2025 112.354 81.0586 109.653 83.6637C108.23 85.0211 107.916 89.8446 110.785 94.026C112.34 95.9752 114.086 97.7646 115.997 99.3677C119.939 102.776 120.779 105.41 123.903 109.518C127.115 113.744 124.677 107.446 124.421 112.313C124.115 118.224 123.29 125.281 124.961 131.068C127.641 140.313 143.343 151.748 150.154 157.586C156.965 163.424 153.534 183.383 153.534 183.383L208.554 169.065Z" fill="white"/>
<path d="M153.519 183.704C153.466 183.702 153.414 183.689 153.366 183.666C153.319 183.643 153.276 183.61 153.243 183.569C153.209 183.529 153.184 183.481 153.17 183.43C153.156 183.379 153.153 183.325 153.161 183.273C153.198 183.076 156.483 163.461 149.905 157.82C148.789 156.864 147.402 155.733 145.927 154.536C138.342 148.333 126.867 138.963 124.596 131.126C123.136 126.178 123.545 120.275 123.866 115.072C123.932 114.108 123.99 113.167 124.034 112.255C124.045 111.687 124.138 111.124 124.312 110.584C124.107 110.35 123.866 110.058 123.582 109.701C122.523 108.3 121.742 107.103 120.983 105.935C119.575 103.561 117.801 101.423 115.727 99.6012C115.34 99.2583 111.872 96.2371 110.456 94.1866C107.449 89.8082 107.806 84.8532 109.376 83.3573C110.945 81.8613 113.23 83.4813 115.216 84.9408C115.982 85.5653 116.814 86.1037 117.698 86.5462C118.581 86.9184 118.939 86.6557 119.158 86.3492C120.618 84.3643 119.085 78.4242 117.698 76.4612C116.478 74.8341 115.118 73.3176 113.632 71.9296C112.821 71.1268 112.062 70.3679 111.361 69.6017C108.237 66.1719 106.755 62.7276 107.179 59.9181C107.309 59.0789 107.631 58.2809 108.118 57.5852C108.605 56.8895 109.245 56.3145 109.989 55.9045C113.281 53.9707 121.603 59.4072 131.239 65.7049C134.254 67.6752 137.364 69.7111 140.299 71.4771C151.833 78.4461 191.121 98.6307 191.516 98.8277C191.565 98.8528 191.607 98.8888 191.64 98.9332C191.673 98.9775 191.696 99.0288 191.705 99.0831L197.326 127.74C197.33 127.771 197.33 127.803 197.326 127.835C197.094 132.928 197.616 138.028 198.874 142.97C200.911 150.165 208.758 168.715 208.838 168.897C208.86 168.945 208.871 168.998 208.871 169.05C208.871 169.103 208.86 169.156 208.838 169.204C208.813 169.25 208.779 169.29 208.737 169.323C208.696 169.356 208.648 169.38 208.597 169.393L153.614 183.704H153.519ZM124.91 111.16C124.832 111.533 124.786 111.911 124.772 112.291C124.728 113.211 124.662 114.152 124.604 115.115C124.275 120.26 123.874 126.098 125.297 130.922C127.487 138.54 138.868 147.822 146.394 153.967C147.854 155.171 149.256 156.309 150.38 157.265C156.709 162.694 154.483 179.5 153.972 182.806L208.05 168.817C206.904 166.095 200.108 149.844 198.224 143.189C196.246 136.212 196.611 128.543 196.647 127.864L191.07 99.4042C188.325 97.9958 151.154 78.8694 139.97 72.112C137.05 70.3387 133.911 68.2955 130.889 66.3252C122.246 60.677 113.311 54.8391 110.449 56.5394C109.794 56.8894 109.231 57.3879 108.804 57.9949C108.376 58.6019 108.097 59.3006 107.989 60.0348C107.602 62.5889 109.062 65.8727 111.989 69.1201C112.675 69.8498 113.449 70.6233 114.23 71.4187C115.751 72.8361 117.141 74.3869 118.384 76.0526C119.735 78.0083 121.589 84.3716 119.793 86.7943C119.26 87.5241 118.479 87.6554 117.457 87.2249C116.522 86.761 115.641 86.1957 114.829 85.5392C112.997 84.1819 111.106 82.7808 109.938 83.89C108.77 84.9992 108.281 89.6549 111.121 93.7779C112.647 95.6997 114.358 97.4669 116.231 99.0539C118.361 100.92 120.181 103.113 121.625 105.549C122.355 106.702 123.151 107.891 124.195 109.263C124.436 109.577 124.633 109.825 124.801 109.993C124.862 109.968 124.925 109.951 124.991 109.942C125.199 109.944 125.4 110.018 125.561 110.151C125.722 110.283 125.832 110.467 125.874 110.671C125.928 110.79 125.936 110.924 125.897 111.048C125.858 111.172 125.774 111.277 125.662 111.343C125.465 111.459 125.246 111.459 124.91 111.182V111.16Z" fill="#231F20"/>
<path d="M118.661 146.246H169.769C171.829 146.246 173.499 144.577 173.499 142.517V33.2753C173.499 31.2158 171.829 29.5463 169.769 29.5463H118.661C116.601 29.5463 114.931 31.2158 114.931 33.2753L114.931 142.517C114.931 144.577 116.601 146.246 118.661 146.246Z" fill="white"/>
<path d="M169.769 146.611H118.669C117.582 146.609 116.54 146.176 115.773 145.407C115.005 144.638 114.574 143.596 114.574 142.51V33.2753C114.574 32.1889 115.005 31.1468 115.773 30.3779C116.54 29.609 117.582 29.1761 118.669 29.1742H169.769C170.857 29.1742 171.9 29.6062 172.67 30.3754C173.439 31.1445 173.871 32.1876 173.871 33.2753V142.51C173.871 143.598 173.439 144.641 172.67 145.41C171.9 146.179 170.857 146.611 169.769 146.611ZM118.669 29.9039C117.782 29.9154 116.935 30.2757 116.312 30.9067C115.689 31.5377 115.34 32.3887 115.34 33.2753V142.51C115.34 143.403 115.694 144.259 116.325 144.891C116.956 145.523 117.812 145.879 118.705 145.881H169.805C170.7 145.881 171.558 145.526 172.19 144.894C172.823 144.262 173.178 143.404 173.178 142.51V33.2753C173.178 32.3811 172.823 31.5236 172.19 30.8914C171.558 30.2591 170.7 29.9039 169.805 29.9039H118.669Z" fill="#231F20"/>
<path d="M117.895 129.915H170.309V40.0984H117.895L117.895 129.915Z" fill="#FF5858"/>
<path d="M148.599 143.05H138.627C137.922 143.048 137.246 142.766 136.748 142.267C136.25 141.768 135.97 141.091 135.97 140.386V136.577C135.97 135.872 136.25 135.196 136.748 134.696C137.246 134.197 137.922 133.915 138.627 133.914H148.599C149.304 133.915 149.98 134.197 150.478 134.696C150.976 135.196 151.256 135.872 151.256 136.577V140.386C151.256 141.091 150.976 141.768 150.478 142.267C149.98 142.766 149.304 143.048 148.599 143.05ZM138.627 134.643C138.115 134.645 137.625 134.85 137.264 135.212C136.903 135.575 136.7 136.065 136.7 136.577V140.386C136.7 140.898 136.903 141.389 137.264 141.751C137.625 142.114 138.115 142.318 138.627 142.32H148.599C149.111 142.318 149.601 142.114 149.962 141.751C150.323 141.389 150.526 140.898 150.526 140.386V136.577C150.526 136.065 150.323 135.575 149.962 135.212C149.601 134.85 149.111 134.645 148.599 134.643H138.627Z" fill="#D1D3D4"/>
<path d="M154.76 35.1434H139.853C139.757 35.1434 139.664 35.105 139.595 35.0366C139.527 34.9681 139.488 34.8753 139.488 34.7786C139.488 34.6818 139.527 34.589 139.595 34.5206C139.664 34.4521 139.757 34.4137 139.853 34.4137H154.76C154.857 34.4137 154.95 34.4521 155.018 34.5206C155.087 34.589 155.125 34.6818 155.125 34.7786C155.125 34.8753 155.087 34.9681 155.018 35.0366C154.95 35.105 154.857 35.1434 154.76 35.1434Z" fill="#D1D3D4"/>
<path d="M137.758 34.961H135.78C135.683 34.961 135.59 34.9225 135.522 34.8541C135.453 34.7857 135.415 34.6929 135.415 34.5961C135.415 34.4993 135.453 34.4065 135.522 34.3381C135.59 34.2697 135.683 34.2312 135.78 34.2312H137.78C137.877 34.2312 137.97 34.2697 138.038 34.3381C138.107 34.4065 138.145 34.4993 138.145 34.5961C138.145 34.6459 138.135 34.6952 138.115 34.741C138.096 34.7868 138.067 34.828 138.031 34.8622C137.994 34.8964 137.952 34.9228 137.905 34.9398C137.858 34.9568 137.808 34.964 137.758 34.961Z" fill="#D1D3D4"/>
<path d="M125.502 88.8376C125.541 89.8661 125.269 90.8826 124.72 91.7537C124.172 92.6248 123.373 93.3101 122.428 93.7196C120.09 94.7586 117.449 94.8913 115.019 94.0917C113.628 93.6439 112.337 92.9329 111.216 91.9974C109.288 90.37 108.164 88.1881 108.412 86.1595C108.821 82.8537 113.128 80.7886 117.552 81.2848C121.684 81.7445 125.261 85.9186 125.502 88.8376Z" fill="white"/>
<path d="M118.348 94.9455C117.182 94.9447 116.022 94.7675 114.909 94.4201C113.472 93.9493 112.138 93.206 110.982 92.2309C108.887 90.4649 107.792 88.1662 108.062 86.0792C108.493 82.6786 112.77 80.3507 117.61 80.8907C121.866 81.3724 125.64 85.5903 125.881 88.7646C125.931 89.8653 125.644 90.955 125.06 91.8894C124.476 92.8238 123.622 93.5587 122.611 93.9969C121.282 94.6363 119.823 94.9609 118.348 94.9455ZM116.238 81.5402C112.391 81.5402 109.106 83.4959 108.777 86.1667C108.544 87.9984 109.551 90.0563 111.456 91.6617C112.528 92.5705 113.768 93.2598 115.106 93.6904C117.446 94.4709 119.994 94.3459 122.246 93.3401C123.126 92.9644 123.871 92.3309 124.383 91.5231C124.895 90.7154 125.15 89.7714 125.115 88.8157C124.896 86.2324 121.603 82.0729 117.486 81.6132C117.072 81.5645 116.655 81.5401 116.238 81.5402Z" fill="#231F20"/>
<path d="M124.742 103.556C125.161 104.15 125.44 104.831 125.556 105.548C125.673 106.265 125.624 106.999 125.414 107.694C125.082 108.515 124.559 109.246 123.888 109.825C122.136 111.481 119.735 112.656 117.318 112.299C115.853 112 114.474 111.371 113.289 110.46C111.179 109 109.15 107.161 108.449 104.702C107.434 101.141 110.018 95.9452 114.201 96.4488C117.661 96.8647 122.91 100.718 124.742 103.556Z" fill="white"/>
<path d="M118.216 112.729C117.906 112.731 117.596 112.706 117.289 112.656C115.78 112.338 114.364 111.679 113.15 110.73C110.361 108.818 108.77 106.921 108.164 104.775C107.879 103.587 107.877 102.35 108.157 101.161C108.437 99.9723 108.992 98.8657 109.777 97.9301C110.31 97.2567 111.006 96.7307 111.8 96.4024C112.593 96.0741 113.458 95.9544 114.311 96.0547C117.873 96.4998 123.209 100.433 125.086 103.352C125.541 103.99 125.844 104.723 125.97 105.496C126.097 106.27 126.044 107.061 125.816 107.811C125.464 108.684 124.911 109.461 124.202 110.08C122.619 111.696 120.477 112.645 118.216 112.729ZM113.661 96.7772C113.012 96.7869 112.374 96.9406 111.792 97.227C111.21 97.5135 110.699 97.9256 110.296 98.4337C109.587 99.276 109.086 100.273 108.833 101.343C108.579 102.414 108.58 103.53 108.836 104.6C109.398 106.578 110.894 108.344 113.537 110.161C114.676 111.037 115.999 111.646 117.406 111.941C119.45 112.24 121.728 111.372 123.647 109.555C124.286 109.02 124.787 108.339 125.107 107.57C125.301 106.928 125.345 106.25 125.234 105.588C125.124 104.926 124.864 104.298 124.472 103.753C122.72 101.039 117.537 97.2223 114.252 96.8063C114.056 96.7828 113.859 96.7731 113.661 96.7772Z" fill="#231F20"/>
<path d="M122.677 115.006C123.488 115.568 124.168 116.3 124.669 117.151C125.16 118.142 125.36 119.251 125.245 120.351C125.13 121.45 124.705 122.494 124.02 123.362C123.317 124.212 122.451 124.914 121.473 125.427C120.496 125.939 119.426 126.252 118.326 126.346C117.029 126.503 115.714 126.385 114.466 125.999C113.218 125.613 112.065 124.968 111.084 124.106C110.118 123.226 109.398 122.11 108.994 120.868C108.591 119.625 108.519 118.299 108.785 117.02C110.383 110.321 118.501 111.97 122.677 115.006Z" fill="white"/>
<path d="M117.26 126.784C114.896 126.809 112.607 125.956 110.836 124.39C109.82 123.469 109.063 122.298 108.64 120.993C108.217 119.689 108.144 118.296 108.427 116.954C108.615 115.947 109.06 115.004 109.719 114.218C110.377 113.432 111.227 112.829 112.186 112.467C115.493 111.248 120.07 112.678 122.888 114.729C123.747 115.319 124.465 116.091 124.991 116.991C125.51 118.045 125.721 119.223 125.599 120.392C125.478 121.56 125.029 122.67 124.304 123.595C123.575 124.489 122.673 125.226 121.652 125.764C120.631 126.302 119.512 126.629 118.362 126.726C117.997 126.784 117.625 126.784 117.26 126.784ZM114.931 112.737C114.084 112.727 113.242 112.866 112.442 113.145C111.592 113.464 110.841 113.998 110.261 114.695C109.681 115.393 109.293 116.229 109.135 117.122C108.88 118.337 108.949 119.598 109.333 120.778C109.717 121.959 110.404 123.018 111.325 123.85C112.266 124.673 113.37 125.289 114.565 125.656C115.76 126.023 117.019 126.134 118.26 125.981C119.312 125.895 120.336 125.599 121.271 125.11C122.207 124.621 123.035 123.95 123.706 123.135C124.353 122.322 124.755 121.34 124.865 120.307C124.975 119.273 124.788 118.229 124.326 117.297C123.855 116.493 123.212 115.803 122.443 115.276C120.247 113.701 117.633 112.812 114.931 112.722V112.737Z" fill="#231F20"/>
<path d="M204.67 153.208L199.283 141.802L147.672 159.673L151.022 172.115L204.67 153.208Z" fill="#FF5858"/>
<path d="M147.219 167.284L204.159 148.793L220.394 178.792L157.052 198.021L147.219 167.284Z" fill="#231F20"/>
<path d="M157.052 198.379C156.975 198.38 156.9 198.356 156.837 198.312C156.774 198.267 156.727 198.204 156.702 198.131L146.876 167.394C146.861 167.349 146.856 167.301 146.859 167.254C146.863 167.207 146.876 167.161 146.898 167.119C146.92 167.077 146.95 167.039 146.986 167.009C147.022 166.979 147.064 166.956 147.11 166.942L204.05 148.45C204.13 148.421 204.217 148.422 204.297 148.453C204.376 148.484 204.441 148.542 204.48 148.618L220.716 178.595C220.742 178.643 220.757 178.696 220.76 178.75C220.763 178.804 220.753 178.858 220.732 178.908C220.711 178.958 220.679 179.002 220.638 179.038C220.597 179.073 220.549 179.099 220.497 179.114L157.154 198.342C157.124 198.362 157.089 198.375 157.052 198.379ZM147.679 167.518L157.286 197.569L219.861 178.595L203.984 149.253L147.679 167.518Z" fill="#231F20"/>
<path d="M197.012 129.572C197.012 129.572 196.647 98.2804 192.997 92.0703C189.347 85.8603 177.828 59.7721 174.747 59.5897C171.667 59.4072 168.484 68.8355 171.222 77.2348C172.81 82.1841 175.148 86.8602 178.157 91.0998C178.157 91.0998 170.178 98.0396 176.2 121.056" fill="white"/>
<path d="M197.012 129.936C196.917 129.936 196.825 129.899 196.757 129.832C196.689 129.765 196.649 129.674 196.647 129.579C196.647 129.265 196.246 98.3096 192.684 92.2601C191.552 90.3409 189.698 86.5681 187.574 82.2043C183.493 73.929 176.667 60.0713 174.733 59.9545C174.365 59.9914 174.011 60.1152 173.7 60.3156C173.389 60.5161 173.13 60.7875 172.944 61.1075C170.703 64.0265 169.521 70.9809 171.543 77.1618C173.123 82.0716 175.442 86.7124 178.419 90.9246C178.475 90.9984 178.501 91.0907 178.492 91.1828C178.482 91.275 178.438 91.3601 178.368 91.4209C178.288 91.4865 170.645 98.5358 176.521 121.004C176.546 121.097 176.533 121.196 176.485 121.28C176.437 121.363 176.358 121.424 176.266 121.45C176.22 121.463 176.172 121.467 176.124 121.461C176.077 121.455 176.031 121.44 175.989 121.416C175.948 121.392 175.911 121.36 175.882 121.322C175.853 121.284 175.832 121.241 175.821 121.194C170.331 100.229 176.31 92.5082 177.646 91.1071C174.724 86.8882 172.432 82.2667 170.842 77.388C168.754 70.9809 170.01 63.72 172.368 60.6697C172.618 60.2603 172.965 59.919 173.379 59.6759C173.793 59.4328 174.261 59.2954 174.74 59.2759C176.93 59.3999 181.704 68.7625 188.201 81.8978C190.348 86.2762 192.194 90.0052 193.311 91.9025C196.961 98.1199 197.363 128.302 197.377 129.579C197.378 129.627 197.37 129.674 197.352 129.719C197.335 129.764 197.309 129.804 197.276 129.839C197.242 129.874 197.203 129.901 197.159 129.921C197.115 129.94 197.068 129.95 197.02 129.951L197.012 129.936Z" fill="#231F20"/>
<path d="M200.845 171.254C202.962 171.254 204.677 169.539 204.677 167.423C204.677 165.307 202.962 163.592 200.845 163.592C198.728 163.592 197.012 165.307 197.012 167.423C197.012 169.539 198.728 171.254 200.845 171.254Z" fill="white"/>
<path d="M154.439 37.5516H86.7678C85.0679 37.5516 83.4377 38.2266 82.2357 39.4282C81.0337 40.6297 80.3584 42.2594 80.3584 43.9587V77.9864C80.3584 79.6863 81.0334 81.3167 82.2352 82.5195C83.437 83.7222 85.0672 84.3988 86.7678 84.4008H144.153L153.592 96.405V84.4008H154.439C156.139 84.3988 157.77 83.7222 158.971 82.5195C160.173 81.3167 160.848 79.6863 160.848 77.9864V43.9587C160.848 42.2594 160.173 40.6297 158.971 39.4282C157.769 38.2266 156.139 37.5516 154.439 37.5516Z" fill="white"/>
<path d="M153.592 96.7771C153.536 96.7778 153.481 96.7648 153.432 96.7394C153.382 96.7139 153.339 96.6768 153.307 96.6312L143.971 84.7656H86.7678C84.971 84.7618 83.2491 84.0461 81.9793 82.7753C80.7095 81.5046 79.9953 79.7825 79.9934 77.9864V43.9587C79.9953 42.1632 80.7097 40.4419 81.9797 39.1723C83.2497 37.9027 84.9717 37.1886 86.7678 37.1867H154.439C156.235 37.1886 157.957 37.9027 159.227 39.1723C160.497 40.4419 161.211 42.1632 161.213 43.9587V77.9864C161.211 79.7825 160.497 81.5046 159.227 82.7753C157.958 84.0461 156.236 84.7618 154.439 84.7656H153.957V96.4415C153.958 96.5176 153.934 96.5919 153.889 96.6536C153.844 96.7153 153.781 96.7611 153.709 96.7844C153.67 96.7897 153.63 96.7872 153.592 96.7771ZM86.7678 37.9164C85.1659 37.9203 83.6307 38.5581 82.498 39.6904C81.3653 40.8227 80.7273 42.3573 80.7234 43.9587V77.9864C80.7253 79.589 81.3625 81.1255 82.4955 82.2593C83.6284 83.3932 85.1647 84.032 86.7678 84.0359H144.153C144.208 84.0356 144.262 84.048 144.312 84.072C144.361 84.0961 144.404 84.1311 144.438 84.1746L153.198 95.3541V84.4081C153.198 84.3113 153.236 84.2185 153.305 84.1501C153.373 84.0816 153.466 84.0432 153.563 84.0432H154.41C156.013 84.0413 157.551 83.4031 158.684 82.2688C159.817 81.1345 160.454 79.5968 160.454 77.9937V43.9587C160.452 42.3568 159.815 40.821 158.682 39.6883C157.548 38.5556 156.012 37.9184 154.41 37.9164H86.7678Z" fill="#231F20"/>
<path d="M127.874 49.2712H113.333C111.865 49.2712 110.675 50.4604 110.675 51.9274V59.2759C110.675 60.7429 111.865 61.9321 113.333 61.9321H127.874C129.342 61.9321 130.531 60.7429 130.531 59.2759V51.9274C130.531 50.4604 129.342 49.2712 127.874 49.2712Z" fill="#FF5858"/>
<path d="M125.56 52.2923H115.647C115.259 52.2923 114.888 52.1385 114.614 51.8648C114.34 51.5911 114.187 51.2199 114.187 50.8328V46.8995C114.158 46.0385 114.302 45.1804 114.612 44.3764C114.921 43.5723 115.39 42.8388 115.989 42.2194C116.588 41.6 117.305 41.1075 118.099 40.7711C118.892 40.4347 119.745 40.2614 120.607 40.2614C121.469 40.2614 122.322 40.4347 123.115 40.7711C123.909 41.1075 124.626 41.6 125.225 42.2194C125.824 42.8388 126.293 43.5723 126.602 44.3764C126.912 45.1804 127.056 46.0385 127.027 46.8995V50.8328C127.027 51.0251 126.989 51.2155 126.915 51.393C126.842 51.5706 126.733 51.7318 126.597 51.8674C126.461 52.003 126.299 52.1104 126.121 52.1833C125.943 52.2562 125.752 52.2932 125.56 52.2923ZM117.099 49.3733H124.1V46.8995C124.122 46.4266 124.047 45.9541 123.881 45.5108C123.715 45.0674 123.46 44.6624 123.133 44.32C122.806 43.9777 122.413 43.7052 121.977 43.5191C121.542 43.3329 121.073 43.2369 120.6 43.2369C120.126 43.2369 119.657 43.3329 119.222 43.5191C118.786 43.7052 118.393 43.9777 118.066 44.32C117.739 44.6624 117.485 45.0674 117.318 45.5108C117.152 45.9541 117.078 46.4266 117.099 46.8995V49.3733Z" fill="#FF5858"/>
<path d="M120.603 55.525C121.652 55.525 122.501 54.6756 122.501 53.6277C122.501 52.5798 121.652 51.7304 120.603 51.7304C119.555 51.7304 118.705 52.5798 118.705 53.6277C118.705 54.6756 119.555 55.525 120.603 55.525Z" fill="#231F20"/>
<path d="M121.136 53.9926H120.07V58.4221H121.136V53.9926Z" fill="#231F20"/>
<path d="M151.373 76.7385H89.5491C88.9296 76.7385 88.3354 76.4925 87.8973 76.0546C87.4592 75.6166 87.2131 75.0227 87.2131 74.4034V67.8357C87.2131 67.2164 87.4592 66.6224 87.8973 66.1845C88.3354 65.7466 88.9296 65.5005 89.5491 65.5005H151.373C151.993 65.5005 152.588 65.7463 153.027 66.1841C153.466 66.6218 153.714 67.2157 153.716 67.8357V74.4034C153.714 75.0234 153.466 75.6173 153.027 76.055C152.588 76.4927 151.993 76.7385 151.373 76.7385ZM89.5491 66.2157C89.1232 66.2157 88.7147 66.3848 88.4135 66.6859C88.1123 66.987 87.9431 67.3953 87.9431 67.8211V74.3888C87.9421 74.5999 87.983 74.8091 88.0634 75.0043C88.1437 75.1995 88.262 75.3769 88.4113 75.5261C88.5607 75.6754 88.7381 75.7936 88.9334 75.874C89.1287 75.9543 89.3379 75.9952 89.5491 75.9942H151.373C151.584 75.9952 151.794 75.9543 151.99 75.8741C152.185 75.7938 152.363 75.6757 152.513 75.5266C152.663 75.3774 152.782 75.2001 152.863 75.0048C152.944 74.8096 152.986 74.6002 152.986 74.3888V67.8211C152.984 67.3947 152.813 66.9863 152.511 66.6855C152.209 66.3846 151.799 66.2157 151.373 66.2157H89.5491Z" fill="#D1D3D4"/>
<path d="M93.8415 71.4333L94.6664 72.5206L93.7466 73.1628L92.9217 72.0536L92.1114 73.1263L91.25 72.4841L92.0822 71.4187L90.7609 70.9809L91.1186 69.9592L92.418 70.4117V69.0836H93.5349V70.4117L94.8343 70.003L95.1774 71.0247L93.8415 71.4333Z" fill="black"/>
<path d="M99.8494 71.4333L100.674 72.5206L99.7545 73.1628L98.9296 72.0536L98.1193 73.1263L97.2214 72.4841L98.0536 71.4187L96.7323 70.9809L97.09 69.9592L98.3894 70.4117V69.0836H99.5063V70.4117L100.806 70.003L101.149 71.0247L99.8494 71.4333Z" fill="black"/>
<path d="M105.85 71.4333L106.675 72.5206L105.755 73.1628L104.938 72.0536L104.127 73.1263L103.229 72.4841L104.062 71.4187L102.74 70.9809L103.098 69.9592L104.397 70.4117V69.0836H105.514V70.4117L106.814 70.003L107.157 71.0247L105.85 71.4333Z" fill="black"/>
<path d="M111.865 71.4333L112.69 72.5206L111.77 73.1628L110.96 72.0536L110.15 73.1263L109.259 72.4841L110.084 71.4187L108.763 70.9809L109.12 69.9592L110.42 70.4117V69.0836H111.544V70.4117L112.836 70.003L113.186 71.0247L111.865 71.4333Z" fill="black"/>
<path d="M117.873 71.4333L118.698 72.5206L117.778 73.1628L116.953 72.0536L116.143 73.1263L115.252 72.4841L116.07 71.4187L114.749 70.9809L115.106 69.9592L116.406 70.4117V69.0836H117.53V70.4117L118.822 70.003L119.173 71.0247L117.873 71.4333Z" fill="black"/>
</svg>
