<svg width="333" height="251" viewBox="0 0 333 251" fill="none" xmlns="http://www.w3.org/2000/svg">
<path d="M290.185 193.079H40.4595C40.3491 193.079 40.2432 193.035 40.1652 192.957C40.0871 192.879 40.0432 192.773 40.0432 192.663C40.0432 192.553 40.0871 192.447 40.1652 192.369C40.2432 192.291 40.3491 192.247 40.4595 192.247H290.209C290.319 192.249 290.424 192.293 290.501 192.371C290.579 192.449 290.624 192.553 290.626 192.663C290.626 192.72 290.614 192.776 290.592 192.828C290.569 192.881 290.536 192.928 290.495 192.967C290.454 193.006 290.405 193.036 290.351 193.055C290.298 193.075 290.241 193.083 290.185 193.079V193.079Z" fill="#D1D3D4"/>
<path d="M269.897 209.131H118.481L141.117 32.5025H292.54L269.897 209.131Z" fill="white"/>
<path d="M269.905 209.589H118.481C118.422 209.59 118.362 209.577 118.308 209.553C118.253 209.528 118.205 209.493 118.165 209.448C118.127 209.403 118.098 209.352 118.081 209.296C118.064 209.24 118.059 209.181 118.065 209.123L140.692 32.4525C140.705 32.3524 140.753 32.2601 140.828 32.1927C140.903 32.1253 141 32.0875 141.1 32.0862H292.54C292.6 32.0856 292.66 32.0979 292.714 32.1224C292.769 32.1469 292.818 32.1829 292.857 32.2279C292.897 32.273 292.926 32.326 292.943 32.3835C292.961 32.4409 292.965 32.5014 292.957 32.5607L270.313 209.181C270.311 209.289 270.267 209.391 270.191 209.467C270.115 209.543 270.012 209.587 269.905 209.589V209.589ZM118.956 208.757H269.53L292.066 32.9187H141.525L118.956 208.757Z" fill="#231F20"/>
<path d="M270.562 54.0159H174.575C174.099 54.0284 173.625 53.9354 173.188 53.7436C172.752 53.5518 172.363 53.266 172.05 52.9065C171.736 52.547 171.506 52.1227 171.376 51.664C171.245 51.2052 171.218 50.7233 171.295 50.2528L171.545 48.2962C171.697 47.2707 172.207 46.3318 172.984 45.645C173.76 44.9581 174.754 44.5673 175.791 44.5414H271.77C272.246 44.5291 272.718 44.622 273.154 44.8133C273.59 45.0046 273.978 45.2897 274.292 45.6482C274.605 46.0067 274.835 46.4299 274.966 46.8876C275.097 47.3453 275.126 47.8263 275.05 48.2962L274.792 50.2528C274.641 51.2771 274.135 52.2157 273.362 52.9039C272.588 53.5921 271.597 53.9858 270.562 54.0159Z" fill="#E6E7E8"/>
<path d="M161.114 46.0899H152.556C152.445 46.0899 152.339 46.0461 152.261 45.968C152.183 45.8899 152.139 45.784 152.139 45.6736C152.141 45.5639 152.186 45.4593 152.264 45.3816C152.341 45.304 152.446 45.2595 152.556 45.2574H161.114C161.223 45.2595 161.328 45.304 161.406 45.3816C161.483 45.4593 161.528 45.5639 161.53 45.6736C161.53 45.784 161.486 45.8899 161.408 45.968C161.33 46.0461 161.224 46.0899 161.114 46.0899Z" fill="#D1D3D4"/>
<path d="M160.672 49.8448H152.073C151.962 49.8448 151.856 49.8009 151.778 49.7229C151.7 49.6448 151.657 49.5389 151.657 49.4285C151.657 49.3181 151.7 49.2122 151.778 49.1341C151.856 49.0561 151.962 49.0122 152.073 49.0122H160.672C160.783 49.0122 160.889 49.0561 160.967 49.1341C161.045 49.2122 161.089 49.3181 161.089 49.4285C161.089 49.5389 161.045 49.6448 160.967 49.7229C160.889 49.8009 160.783 49.8448 160.672 49.8448Z" fill="#D1D3D4"/>
<path d="M160.148 53.5913H151.598C151.488 53.5913 151.382 53.5475 151.304 53.4694C151.226 53.3913 151.182 53.2855 151.182 53.1751C151.182 53.0647 151.226 52.9588 151.304 52.8807C151.382 52.8026 151.488 52.7588 151.598 52.7588H160.148C160.258 52.7588 160.364 52.8026 160.442 52.8807C160.52 52.9588 160.564 53.0647 160.564 53.1751C160.564 53.2855 160.52 53.3913 160.442 53.4694C160.364 53.5475 160.258 53.5913 160.148 53.5913Z" fill="#D1D3D4"/>
<path d="M161.114 46.0899H152.556C152.445 46.0899 152.339 46.0461 152.261 45.968C152.183 45.8899 152.139 45.784 152.139 45.6736C152.141 45.5639 152.186 45.4593 152.264 45.3816C152.341 45.304 152.446 45.2595 152.556 45.2574H161.114C161.223 45.2595 161.328 45.304 161.406 45.3816C161.483 45.4593 161.528 45.5639 161.53 45.6736C161.53 45.784 161.486 45.8899 161.408 45.968C161.33 46.0461 161.224 46.0899 161.114 46.0899Z" stroke="#231F20" stroke-width="1.015" stroke-linecap="round" stroke-linejoin="round"/>
<path d="M160.672 49.8448H152.073C151.962 49.8448 151.856 49.8009 151.778 49.7229C151.7 49.6448 151.657 49.5389 151.657 49.4285C151.657 49.3181 151.7 49.2122 151.778 49.1341C151.856 49.0561 151.962 49.0122 152.073 49.0122H160.672C160.783 49.0122 160.889 49.0561 160.967 49.1341C161.045 49.2122 161.089 49.3181 161.089 49.4285C161.089 49.5389 161.045 49.6448 160.967 49.7229C160.889 49.8009 160.783 49.8448 160.672 49.8448Z" stroke="#231F20" stroke-width="1.015" stroke-linecap="round" stroke-linejoin="round"/>
<path d="M160.148 53.5913H151.598C151.488 53.5913 151.382 53.5475 151.304 53.4694C151.226 53.3913 151.182 53.2855 151.182 53.1751C151.182 53.0647 151.226 52.9588 151.304 52.8807C151.382 52.8026 151.488 52.7588 151.598 52.7588H160.148C160.258 52.7588 160.364 52.8026 160.442 52.8807C160.52 52.9588 160.564 53.0647 160.564 53.1751C160.564 53.2855 160.52 53.3913 160.442 53.4694C160.364 53.5475 160.258 53.5913 160.148 53.5913Z" stroke="#231F20" stroke-width="1.015" stroke-linecap="round" stroke-linejoin="round"/>
<path d="M264.427 100.248H153.605C152.372 100.281 151.147 100.042 150.018 99.5472C148.888 99.0528 147.882 98.3156 147.07 97.388C146.257 96.4604 145.659 95.3652 145.318 94.1803C144.977 92.9953 144.901 91.7498 145.096 90.5323L146.92 76.2871C147.304 73.6178 148.619 71.1703 150.633 69.3771C152.647 67.5839 155.23 66.5605 157.925 66.4878H268.756C269.989 66.4618 271.212 66.7075 272.339 67.2075C273.466 67.7074 274.469 68.4494 275.278 69.3808C276.086 70.3121 276.679 71.41 277.015 72.5964C277.351 73.7827 277.422 75.0286 277.222 76.2454L275.433 90.5323C275.032 93.187 273.71 95.616 271.697 97.3927C269.685 99.1695 267.111 100.18 264.427 100.248V100.248Z" fill="white"/>
<path d="M264.427 100.665H153.605C152.32 100.69 151.045 100.438 149.866 99.9252C148.688 99.4122 147.635 98.6505 146.778 97.6923C145.927 96.7062 145.298 95.5476 144.936 94.2959C144.574 93.0443 144.487 91.7292 144.68 90.4407L146.52 76.1955C146.928 73.4365 148.295 70.9094 150.381 69.0579C152.466 67.2065 155.138 66.1491 157.925 66.0715H268.756C270.036 66.0504 271.307 66.3048 272.48 66.8177C273.654 67.3305 274.703 68.0897 275.557 69.0438C276.409 70.0318 277.037 71.1918 277.399 72.4447C277.761 73.6976 277.848 75.0139 277.655 76.3037L275.849 90.5323C275.441 93.2949 274.072 95.8252 271.983 97.6783C269.894 99.5315 267.218 100.589 264.427 100.665ZM157.925 66.9041C155.34 66.9799 152.864 67.9633 150.93 69.6819C148.997 71.4006 147.731 73.7448 147.352 76.3037L145.504 90.5323C145.33 91.7032 145.409 92.898 145.736 94.0357C146.064 95.1734 146.632 96.2274 147.402 97.1262C148.182 97.9947 149.139 98.6846 150.21 99.1487C151.28 99.6129 152.438 99.8403 153.605 99.8154H264.427C267.015 99.7453 269.495 98.7654 271.431 97.0478C273.368 95.3302 274.637 92.9849 275.016 90.424L276.848 76.1788C277.023 75.0066 276.944 73.8105 276.616 72.6714C276.289 71.5324 275.72 70.477 274.95 69.5766C274.171 68.7096 273.215 68.0206 272.146 67.5566C271.077 67.0925 269.921 66.8643 268.756 66.8874L157.925 66.9041Z" fill="#231F20"/>
<path d="M175.512 91.3795C180.545 86.6576 181.259 79.2411 177.107 74.8144C172.955 70.3878 165.509 70.6271 160.475 75.3491C155.442 80.0711 154.728 87.4875 158.88 91.9142C163.032 96.3409 170.479 96.1015 175.512 91.3795Z" fill="#FF5858"/>
<path d="M176.007 79.6423C175.917 79.7616 175.819 79.8755 175.716 79.9837L165.767 88.7922C165.426 89.0919 165.193 89.1003 164.935 88.7922L160.672 83.6636C160.439 83.3861 160.481 83.1086 160.797 82.831L162.188 81.7154C162.479 81.4823 162.72 81.4823 162.937 81.7154L165.484 84.7043C165.751 85.0124 165.976 85.0207 166.317 84.7043L173.992 77.9439C174.325 77.6525 174.559 77.6525 174.825 77.9439C175.091 78.2353 175.508 78.7182 175.841 79.1095C175.916 79.2094 175.966 79.3343 176.032 79.4425L176.007 79.6423Z" fill="white"/>
<path d="M261.988 78.2519H190.734C190.403 78.2519 190.085 78.1203 189.851 77.8861C189.617 77.6519 189.485 77.3343 189.485 77.0031C189.485 76.6719 189.617 76.3542 189.851 76.12C190.085 75.8858 190.403 75.7542 190.734 75.7542H261.988C262.319 75.7542 262.637 75.8858 262.871 76.12C263.105 76.3542 263.237 76.6719 263.237 77.0031C263.237 77.3343 263.105 77.6519 262.871 77.8861C262.637 78.1203 262.319 78.2519 261.988 78.2519Z" fill="#E6E7E8"/>
<path d="M245.92 90.2658H189.194C188.863 90.2658 188.545 90.1343 188.311 89.9001C188.077 89.6659 187.945 89.3482 187.945 89.017C187.945 88.6858 188.077 88.3681 188.311 88.1339C188.545 87.8997 188.863 87.7681 189.194 87.7681H245.92C246.252 87.7681 246.569 87.8997 246.803 88.1339C247.038 88.3681 247.169 88.6858 247.169 89.017C247.169 89.3482 247.038 89.6659 246.803 89.9001C246.569 90.1343 246.252 90.2658 245.92 90.2658V90.2658Z" fill="#E6E7E8"/>
<path d="M259.415 139.304H148.593C147.357 139.336 146.129 139.095 144.996 138.598C143.864 138.101 142.856 137.359 142.043 136.427C141.23 135.495 140.633 134.395 140.295 133.206C139.956 132.016 139.885 130.767 140.085 129.546L141.916 115.301C142.304 112.635 143.621 110.191 145.634 108.401C147.648 106.612 150.229 105.59 152.922 105.518H263.744C264.981 105.489 266.209 105.734 267.34 106.234C268.471 106.734 269.478 107.478 270.288 108.413C271.099 109.347 271.693 110.449 272.028 111.64C272.363 112.831 272.431 114.081 272.227 115.301L270.404 129.546C270.013 132.206 268.697 134.642 266.687 136.427C264.677 138.212 262.102 139.231 259.415 139.304V139.304Z" fill="white"/>
<path d="M259.424 139.72H148.593C147.31 139.746 146.037 139.494 144.86 138.983C143.684 138.471 142.631 137.712 141.775 136.756C140.924 135.768 140.296 134.608 139.934 133.355C139.572 132.102 139.484 130.786 139.677 129.496L141.525 115.251C141.937 112.492 143.307 109.965 145.396 108.115C147.485 106.266 150.158 105.211 152.947 105.135H263.744C265.028 105.11 266.303 105.361 267.481 105.873C268.659 106.384 269.713 107.144 270.571 108.099C271.42 109.089 272.047 110.249 272.409 111.501C272.771 112.754 272.859 114.07 272.669 115.359L270.837 129.605C270.427 132.363 269.058 134.89 266.971 136.74C264.884 138.59 262.212 139.645 259.424 139.72ZM152.922 105.968C150.34 106.047 147.867 107.031 145.936 108.747C144.005 110.464 142.739 112.804 142.357 115.359L140.534 129.605C140.36 130.777 140.439 131.973 140.766 133.112C141.093 134.251 141.662 135.306 142.432 136.207C143.211 137.073 144.168 137.76 145.237 138.223C146.306 138.686 147.462 138.912 148.626 138.888H259.424C262.011 138.816 264.49 137.836 266.426 136.118C268.363 134.401 269.633 132.056 270.013 129.496L271.836 115.251C272.015 114.079 271.938 112.882 271.61 111.742C271.282 110.602 270.712 109.547 269.938 108.649C269.159 107.783 268.203 107.095 267.134 106.632C266.065 106.169 264.909 105.943 263.744 105.968H152.922Z" fill="#231F20"/>
<path d="M161.505 134.567C159.975 134.597 158.457 134.295 157.054 133.683C155.652 133.071 154.398 132.162 153.38 131.02C152.368 129.843 151.622 128.462 151.191 126.971C150.76 125.48 150.655 123.913 150.882 122.378C151.368 119.079 153.001 116.058 155.496 113.847C157.991 111.635 161.186 110.375 164.519 110.289C166.049 110.258 167.568 110.559 168.972 111.169C170.376 111.78 171.631 112.687 172.652 113.827C173.665 115.006 174.412 116.388 174.843 117.881C175.274 119.373 175.379 120.941 175.15 122.478V122.478C174.664 125.778 173.029 128.8 170.533 131.012C168.036 133.223 164.839 134.482 161.505 134.567V134.567ZM164.51 111.122C161.382 111.209 158.385 112.395 156.043 114.471C153.702 116.548 152.167 119.382 151.706 122.478C151.49 123.901 151.585 125.355 151.983 126.739C152.381 128.123 153.073 129.404 154.012 130.495C154.953 131.547 156.109 132.383 157.402 132.946C158.695 133.51 160.095 133.787 161.505 133.759C164.635 133.674 167.634 132.489 169.977 130.412C172.32 128.335 173.857 125.5 174.317 122.403V122.403C174.532 120.982 174.438 119.532 174.041 118.152C173.645 116.771 172.955 115.492 172.019 114.402C171.076 113.344 169.915 112.503 168.616 111.937C167.317 111.371 165.911 111.093 164.494 111.122H164.51Z" fill="#D1D3D4"/>
<path d="M171.004 118.698C170.913 118.817 170.816 118.931 170.712 119.039L160.764 127.848C160.414 128.148 160.181 128.156 159.932 127.848L155.628 122.728C155.394 122.453 155.444 122.186 155.761 121.895L157.151 120.779C157.442 120.546 157.684 120.546 157.892 120.779L160.448 123.768C160.714 124.085 160.939 124.085 161.28 123.768L169.014 116.95C169.347 116.658 169.572 116.658 169.847 116.95C170.121 117.241 170.521 117.724 170.854 118.123C170.93 118.226 170.997 118.334 171.054 118.448L171.004 118.698Z" fill="white"/>
<path d="M256.984 117.308H185.731C185.4 117.308 185.082 117.176 184.848 116.942C184.614 116.708 184.482 116.39 184.482 116.059C184.482 115.728 184.614 115.41 184.848 115.176C185.082 114.941 185.4 114.81 185.731 114.81H256.984C257.316 114.81 257.633 114.941 257.867 115.176C258.102 115.41 258.233 115.728 258.233 116.059C258.233 116.39 258.102 116.708 257.867 116.942C257.633 117.176 257.316 117.308 256.984 117.308Z" fill="#E6E7E8"/>
<path d="M240.909 129.321H184.191C183.859 129.321 183.542 129.19 183.308 128.956C183.073 128.722 182.942 128.404 182.942 128.073C182.942 127.741 183.073 127.424 183.308 127.19C183.542 126.955 183.859 126.824 184.191 126.824H240.909C241.24 126.824 241.558 126.955 241.792 127.19C242.026 127.424 242.158 127.741 242.158 128.073C242.158 128.404 242.026 128.722 241.792 128.956C241.558 129.19 241.24 129.321 240.909 129.321Z" fill="#E6E7E8"/>
<path d="M254.412 178.36H143.59C142.353 178.392 141.125 178.151 139.993 177.653C138.861 177.156 137.852 176.415 137.04 175.483C136.227 174.551 135.63 173.451 135.291 172.261C134.953 171.072 134.881 169.822 135.081 168.602L136.905 154.365C137.305 151.709 138.629 149.279 140.643 147.502C142.657 145.725 145.233 144.715 147.919 144.649H258.741C259.972 144.62 261.194 144.863 262.32 145.358C263.447 145.854 264.451 146.592 265.261 147.519C266.071 148.446 266.668 149.54 267.008 150.723C267.349 151.906 267.426 153.149 267.232 154.365L265.401 168.602C265.01 171.262 263.694 173.698 261.684 175.483C259.674 177.268 257.099 178.286 254.412 178.36V178.36Z" fill="white"/>
<path d="M254.412 178.784H143.59C142.307 178.811 141.033 178.56 139.856 178.048C138.679 177.537 137.627 176.777 136.771 175.82C135.919 174.833 135.29 173.673 134.926 172.42C134.563 171.167 134.474 169.851 134.665 168.56L136.53 154.307C136.94 151.547 138.31 149.019 140.399 147.169C142.488 145.319 145.162 144.265 147.952 144.191H258.741C260.025 144.162 261.299 144.411 262.478 144.921C263.656 145.432 264.71 146.191 265.568 147.147C266.418 148.135 267.046 149.295 267.408 150.548C267.77 151.801 267.858 153.117 267.665 154.407L265.842 168.652C265.435 171.417 264.066 173.949 261.975 175.802C259.883 177.656 257.205 178.712 254.412 178.784V178.784ZM147.919 145.024C145.338 145.105 142.867 146.089 140.938 147.805C139.009 149.522 137.743 151.861 137.362 154.415L135.539 168.66C135.361 169.832 135.438 171.03 135.765 172.169C136.093 173.309 136.663 174.364 137.437 175.262C138.216 176.129 139.173 176.817 140.242 177.279C141.31 177.742 142.467 177.969 143.631 177.943H254.412C257 177.872 259.48 176.892 261.418 175.175C263.356 173.457 264.627 171.113 265.01 168.552L266.833 154.307C267.012 153.134 266.934 151.937 266.607 150.798C266.279 149.658 265.709 148.603 264.935 147.705C264.156 146.838 263.2 146.15 262.131 145.687C261.062 145.225 259.905 144.998 258.741 145.024H147.919Z" fill="#231F20"/>
<path d="M156.51 173.622C154.98 173.652 153.462 173.351 152.059 172.739C150.657 172.126 149.403 171.218 148.385 170.076C147.373 168.898 146.627 167.517 146.196 166.026C145.765 164.535 145.66 162.969 145.887 161.434C146.373 158.135 148.006 155.114 150.501 152.902C152.996 150.691 156.191 149.431 159.524 149.345C161.055 149.315 162.575 149.616 163.978 150.228C165.382 150.84 166.637 151.749 167.657 152.891C168.669 154.069 169.415 155.45 169.846 156.941C170.277 158.432 170.382 159.998 170.155 161.533C169.669 164.833 168.034 167.856 165.538 170.067C163.041 172.279 159.844 173.538 156.51 173.622V173.622ZM159.515 150.177C156.386 150.263 153.386 151.448 151.043 153.524C148.7 155.601 147.164 158.437 146.703 161.533C146.491 162.953 146.587 164.402 146.985 165.781C147.383 167.16 148.073 168.438 149.009 169.526C149.949 170.578 151.105 171.414 152.399 171.977C153.692 172.54 155.091 172.818 156.502 172.79C159.631 172.704 162.631 171.519 164.974 169.443C167.317 167.366 168.853 164.53 169.314 161.434V161.434C169.527 160.014 169.433 158.566 169.036 157.187C168.64 155.808 167.951 154.53 167.016 153.441C166.072 152.386 164.91 151.548 163.611 150.984C162.312 150.421 160.906 150.146 159.49 150.177H159.515Z" fill="#D1D3D4"/>
<path d="M165.992 157.762C165.906 157.882 165.809 157.994 165.701 158.095C162.371 161.031 159.055 163.967 155.752 166.903C155.411 167.212 155.178 167.212 154.92 166.903L150.616 161.783C150.383 161.508 150.433 161.242 150.749 160.992L152.139 159.868C152.431 159.635 152.664 159.635 152.88 159.868C153.729 160.867 154.581 161.864 155.436 162.857C155.694 163.174 155.927 163.174 156.269 162.857L163.994 156.03C164.327 155.739 164.56 155.739 164.827 156.03C165.093 156.322 165.501 156.804 165.834 157.204C165.911 157.304 165.975 157.413 166.025 157.529L165.992 157.762Z" fill="white"/>
<path d="M251.981 156.363H180.719C180.388 156.363 180.07 156.232 179.836 155.997C179.602 155.763 179.47 155.446 179.47 155.114C179.47 154.783 179.602 154.465 179.836 154.231C180.07 153.997 180.388 153.866 180.719 153.866H251.981C252.312 153.866 252.63 153.997 252.864 154.231C253.098 154.465 253.23 154.783 253.23 155.114C253.23 155.446 253.098 155.763 252.864 155.997C252.63 156.232 252.312 156.363 251.981 156.363Z" fill="#E6E7E8"/>
<path d="M235.906 168.377H179.179C178.848 168.377 178.53 168.246 178.296 168.011C178.062 167.777 177.93 167.459 177.93 167.128C177.93 166.797 178.062 166.479 178.296 166.245C178.53 166.011 178.848 165.879 179.179 165.879H235.906C236.237 165.879 236.554 166.011 236.789 166.245C237.023 166.479 237.154 166.797 237.154 167.128C237.154 167.459 237.023 167.777 236.789 168.011C236.554 168.246 236.237 168.377 235.906 168.377V168.377Z" fill="#E6E7E8"/>
<path d="M247.86 200.298C247.774 200.297 247.69 200.271 247.619 200.223L241.125 195.702C241.068 195.662 241.022 195.608 240.991 195.546C240.961 195.483 240.947 195.414 240.95 195.344C240.954 195.275 240.974 195.208 241.009 195.149C241.044 195.09 241.092 195.04 241.15 195.003L248.809 190.482C248.856 190.447 248.91 190.423 248.967 190.411C249.024 190.399 249.083 190.399 249.14 190.411C249.197 190.423 249.251 190.447 249.298 190.481C249.345 190.515 249.385 190.559 249.414 190.609C249.443 190.66 249.462 190.715 249.468 190.773C249.474 190.831 249.468 190.89 249.45 190.945C249.433 191.001 249.404 191.052 249.365 191.095C249.326 191.139 249.279 191.174 249.226 191.198L242.133 195.361L248.093 199.523C248.166 199.574 248.22 199.646 248.249 199.729C248.277 199.813 248.279 199.903 248.253 199.987C248.227 200.071 248.175 200.145 248.104 200.198C248.034 200.251 247.948 200.28 247.86 200.281V200.298Z" fill="#D1D3D4"/>
<path d="M253.446 200.298C253.355 200.299 253.265 200.269 253.192 200.214C253.119 200.159 253.066 200.082 253.041 199.993C253.017 199.905 253.022 199.811 253.056 199.726C253.09 199.642 253.151 199.57 253.23 199.523L260.323 195.361L254.362 191.198C254.272 191.134 254.21 191.036 254.191 190.927C254.173 190.818 254.198 190.705 254.262 190.615C254.326 190.524 254.424 190.463 254.533 190.444C254.642 190.426 254.754 190.451 254.845 190.515L261.33 195.036C261.387 195.077 261.433 195.131 261.465 195.193C261.497 195.255 261.513 195.324 261.513 195.394C261.509 195.463 261.488 195.531 261.452 195.591C261.416 195.65 261.365 195.7 261.305 195.735L253.654 200.256C253.59 200.289 253.518 200.303 253.446 200.298V200.298Z" fill="#D1D3D4"/>
<path d="M91.4085 126.166C91.4085 126.166 98.4348 138.538 105.245 139.654C113.645 141.036 125.957 133.626 125.957 133.626L119.047 126.84L104.895 126.79L97.1527 110.972L91.4085 126.166Z" fill="#FF5858"/>
<path d="M102.905 206.842L103.421 212.17L110.856 211.596L110.156 205.193L102.905 206.842Z" fill="white"/>
<path d="M103.421 212.586C103.319 212.587 103.22 212.548 103.144 212.479C103.069 212.409 103.022 212.314 103.014 212.212L102.489 206.883C102.48 206.782 102.508 206.681 102.568 206.598C102.627 206.516 102.715 206.457 102.814 206.434L110.065 204.769C110.122 204.756 110.181 204.756 110.238 204.767C110.296 204.779 110.35 204.802 110.398 204.835C110.446 204.87 110.486 204.915 110.517 204.967C110.547 205.018 110.566 205.076 110.573 205.135L111.272 211.529C111.28 211.585 111.276 211.642 111.26 211.697C111.244 211.752 111.217 211.802 111.18 211.845C111.107 211.932 111.002 211.985 110.889 211.995L103.455 212.57L103.421 212.586ZM103.355 207.166L103.796 211.729L110.398 211.213L109.798 205.701L103.355 207.166Z" fill="#231F20"/>
<path d="M50.8241 195.036L46.0539 198.832L48.7512 203.944L53.5131 201.838L50.8241 195.036Z" fill="white"/>
<path d="M48.7512 204.361C48.6761 204.362 48.6022 204.342 48.5376 204.304C48.473 204.266 48.4201 204.21 48.3849 204.144L45.6876 199.024C45.6399 198.939 45.6246 198.84 45.6445 198.745C45.6644 198.65 45.7182 198.566 45.7958 198.508L50.5577 194.711C50.6092 194.672 50.6685 194.644 50.7318 194.629C50.795 194.615 50.8606 194.615 50.924 194.628C50.9873 194.645 51.0457 194.676 51.0948 194.72C51.1439 194.763 51.1824 194.817 51.2071 194.878L53.9044 201.688C53.9433 201.789 53.9415 201.9 53.8996 202C53.8577 202.099 53.7788 202.179 53.6796 202.221L48.926 204.327C48.8707 204.35 48.8112 204.362 48.7512 204.361V204.361ZM46.62 198.941L48.9843 203.411L53.0219 201.621L50.6826 195.71L46.62 198.941Z" fill="#231F20"/>
<path d="M65.1681 146.531L65.6676 180.591L49.0176 195.011L52.4475 203.495C52.4475 203.495 76.6566 191.839 80.4278 186.594C84.199 181.348 84.7651 168.644 84.7651 168.644L97.1777 181.132L101.94 208.174L111.413 207.658C111.413 207.658 110.206 187.818 110.206 180.449C110.206 173.081 91.4418 147.738 91.4418 147.738L65.1681 146.531Z" fill="#231F20"/>
<path d="M101.965 208.565C101.867 208.566 101.772 208.533 101.697 208.47C101.623 208.407 101.573 208.32 101.557 208.224L96.8114 181.282L85.1564 169.576C84.9483 172.632 84.0409 182.281 80.8024 186.81C77.0062 192.105 53.6546 203.37 52.6639 203.844C52.6113 203.867 52.5547 203.878 52.4975 203.878C52.4402 203.878 52.3836 203.867 52.331 203.844C52.2778 203.824 52.2294 203.793 52.1892 203.753C52.149 203.713 52.1179 203.665 52.0979 203.611L48.6763 195.119C48.6442 195.04 48.6373 194.952 48.6567 194.869C48.6761 194.785 48.7207 194.71 48.7845 194.653L65.243 180.449L64.7518 146.572C64.751 146.516 64.7617 146.461 64.7832 146.409C64.8047 146.358 64.8365 146.311 64.8767 146.273C64.9158 146.231 64.9639 146.199 65.0172 146.179C65.0706 146.158 65.1279 146.151 65.1848 146.156L91.4834 147.338C91.5455 147.339 91.6063 147.355 91.6613 147.384C91.7162 147.413 91.7636 147.454 91.7998 147.505C92.574 148.545 110.648 173.039 110.648 180.466C110.648 187.734 111.838 207.449 111.855 207.649C111.859 207.759 111.821 207.867 111.748 207.949C111.675 208.031 111.573 208.082 111.463 208.09L101.99 208.607L101.965 208.565ZM84.7901 168.236C84.8984 168.237 85.0024 168.278 85.0815 168.352L97.4941 180.841C97.5534 180.9 97.594 180.975 97.6106 181.057L102.314 207.741L110.997 207.266C110.822 204.361 109.815 187.151 109.815 180.449C109.815 173.597 92.8404 150.302 91.2503 148.146L65.5927 146.989L66.0838 180.616C66.0833 180.675 66.0705 180.734 66.0461 180.789C66.0218 180.843 65.9864 180.892 65.9423 180.932L49.5504 195.127L52.6889 202.929C55.8524 201.388 76.7066 191.106 80.1115 186.352C83.7745 181.249 84.3655 168.752 84.3739 168.627C84.3748 168.546 84.401 168.467 84.4487 168.401C84.4964 168.336 84.5634 168.286 84.6403 168.261C84.6884 168.243 84.7391 168.235 84.7901 168.236V168.236Z" fill="#231F20"/>
<path d="M63.4615 149.902L64.1025 133.193C64.1025 133.193 63.8194 112.579 71.3869 108.899C78.9543 105.219 94.1141 106.801 97.0528 110.972C99.9916 115.143 93.0235 149.902 93.0235 149.902H63.4615Z" fill="#FF5858"/>
<path d="M95.3046 93.313C95.214 91.5541 94.4616 89.8945 93.1984 88.6673C90.526 86.2612 84.5487 85.337 82.3176 88.8921C81.5979 88.9519 80.9171 89.2441 80.3779 89.7247C79.6975 90.3935 79.2038 91.2288 78.946 92.1474C77.7139 95.6775 78.7295 99.4241 80.0948 102.838C80.5097 103.999 81.1683 105.058 82.0262 105.943C84.1158 107.933 87.0212 106.842 89.3605 105.843C90.9333 105.219 92.3325 104.225 93.4398 102.946C94.7385 101.356 95.3962 98.3833 95.4128 96.3602C95.4371 95.3432 95.4009 94.3257 95.3046 93.313V93.313Z" fill="white"/>
<path d="M84.915 107.425C84.3316 107.441 83.7509 107.341 83.2065 107.131C82.662 106.921 82.1647 106.605 81.7432 106.201C80.8306 105.281 80.1339 104.169 79.7035 102.946C78.4714 99.8487 77.206 95.7941 78.5547 91.9643C78.8386 90.9819 79.372 90.0898 80.1031 89.375C80.6635 88.9076 81.3504 88.6177 82.0762 88.5424C82.535 87.8941 83.1278 87.3519 83.8143 86.9526C84.5008 86.5533 85.2652 86.3061 86.0555 86.2279C87.3747 86.0667 88.7128 86.1763 89.9882 86.5499C91.2636 86.9235 92.4494 87.5534 93.4731 88.4009C94.8229 89.6871 95.6275 91.4425 95.7208 93.3047V93.3047C95.8144 94.3204 95.8505 95.3405 95.8291 96.3602C95.8291 98.5249 95.0965 101.572 93.7645 103.212C92.6169 104.549 91.1591 105.584 89.5187 106.226C88.0774 106.923 86.5132 107.331 84.915 107.425V107.425ZM87.196 86.9439C86.8535 86.9407 86.5113 86.9629 86.1721 87.0105C85.4681 87.0793 84.7883 87.304 84.1821 87.6683C83.5758 88.0327 83.0584 88.5275 82.6672 89.1169C82.632 89.1721 82.5842 89.2182 82.5278 89.2515C82.4714 89.2848 82.4079 89.3043 82.3426 89.3084C81.7277 89.3535 81.1437 89.5958 80.6776 89.9994C80.0575 90.6232 79.605 91.3936 79.3622 92.239C78.1218 95.8024 79.3622 99.6738 80.5027 102.638C80.8901 103.749 81.5183 104.761 82.3426 105.602C84.1741 107.35 86.7465 106.434 89.219 105.419C90.734 104.826 92.0825 103.875 93.1484 102.646C94.3389 101.172 95.0049 98.2834 95.0215 96.3103C95.0434 95.3238 95.0073 94.3369 94.9133 93.3547V93.3547C94.8395 91.6964 94.1334 90.1293 92.9403 88.9754C91.3193 87.6521 89.2885 86.9339 87.196 86.9439V86.9439Z" fill="#231F20"/>
<path d="M89.7435 106.642L89.2274 111.688C89.2274 111.688 88.0452 114.377 84.9233 113.037C84.0291 112.647 83.2602 112.018 82.7018 111.219C82.1434 110.419 81.8173 109.481 81.7598 108.507L82.7505 99.4657C82.7505 99.4657 85.3812 98.6331 85.5727 93.2381C85.5727 93.2381 88.7029 93.2381 93.6396 93.4712C93.6396 93.4712 94.3223 101.797 93.4981 104.245C92.6739 106.692 89.7435 106.642 89.7435 106.642Z" fill="white"/>
<path d="M86.58 113.844C85.9538 113.831 85.3366 113.693 84.7651 113.436C83.795 113.019 82.9611 112.339 82.3578 111.472C81.7545 110.605 81.4061 109.587 81.3519 108.532L82.3426 99.4407C82.3523 99.3617 82.3839 99.2871 82.434 99.2253C82.484 99.1635 82.5504 99.1169 82.6256 99.091C82.6256 99.091 84.9899 98.1918 85.1647 93.2631C85.1691 93.1556 85.2148 93.0539 85.2924 92.9794C85.37 92.9049 85.4734 92.8633 85.581 92.8634V92.8634C85.581 92.8634 88.7778 92.8634 93.6646 93.0966C93.7658 93.0983 93.8627 93.1376 93.9366 93.2068C94.0105 93.2761 94.0559 93.3703 94.0642 93.4712C94.0642 93.8209 94.7385 101.913 93.8977 104.419C93.6027 105.185 93.0882 105.846 92.4187 106.32C91.7493 106.794 90.9547 107.06 90.1348 107.084L89.6519 111.771C89.6605 111.815 89.6605 111.86 89.6519 111.904C89.3675 112.479 88.9303 112.963 88.3884 113.306C87.8465 113.648 87.2208 113.834 86.58 113.844V113.844ZM83.1501 99.7654L82.1677 108.549C82.2316 109.435 82.538 110.287 83.0534 111.011C83.5687 111.735 84.2732 112.303 85.0898 112.654C87.5873 113.736 88.6446 111.929 88.8277 111.58L89.3356 106.584C89.3477 106.482 89.3966 106.387 89.4732 106.318C89.5498 106.249 89.6488 106.211 89.7518 106.209C89.86 106.209 92.3908 106.209 93.0818 104.095C93.7728 101.98 93.3565 95.4777 93.24 93.8542C89.552 93.696 86.913 93.6544 85.9556 93.6377C85.7475 98.0253 83.8411 99.3741 83.1418 99.7487L83.1501 99.7654Z" fill="#231F20"/>
<path d="M84.6819 99.6322C84.6481 99.1673 84.464 98.7261 84.1574 98.375C83.8587 98.06 83.5063 97.8007 83.1168 97.6091C82.9173 97.4765 82.6889 97.3937 82.4508 97.3676C82.2834 97.3661 82.1171 97.3943 81.9596 97.4509C81.581 97.5676 81.2545 97.8117 81.0355 98.1419C80.8941 98.4289 80.8254 98.7463 80.8357 99.066C80.8179 99.4123 80.8459 99.7595 80.919 100.098C80.999 100.433 81.1445 100.749 81.3472 101.027C81.5499 101.305 81.8057 101.541 82.0998 101.72C82.394 101.898 82.7206 102.017 83.0609 102.069C83.4012 102.121 83.7484 102.105 84.0825 102.022" fill="white"/>
<path d="M83.4581 102.521C82.903 102.522 82.3585 102.369 81.8847 102.08C81.1945 101.657 80.7005 100.977 80.5111 100.19C80.4295 99.8156 80.3987 99.432 80.4195 99.0494C80.4111 98.6618 80.4998 98.2783 80.6776 97.9338C80.9507 97.5297 81.3575 97.2349 81.8264 97.1012C82.0328 97.0197 82.2541 96.9829 82.4758 96.993C82.7724 97.0228 83.0578 97.1226 83.3083 97.2844C83.7402 97.4912 84.132 97.7731 84.4654 98.1169C84.8363 98.5352 85.0562 99.0658 85.0898 99.6239C85.0967 99.733 85.0604 99.8404 84.9888 99.923C84.9171 100.006 84.8158 100.057 84.7069 100.065C84.5974 100.07 84.4901 100.033 84.4067 99.9622C84.3232 99.8911 84.2698 99.791 84.2573 99.6822C84.2306 99.3078 84.0847 98.9518 83.8411 98.6664C83.5682 98.3912 83.2535 98.1608 82.9087 97.9837C82.7628 97.8885 82.5981 97.8261 82.4258 97.8006C82.3118 97.8031 82.1991 97.8256 82.0928 97.8672C81.8083 97.9463 81.5607 98.1232 81.3935 98.3667C81.2882 98.5933 81.2369 98.8412 81.2437 99.091C81.2232 99.4007 81.2456 99.7117 81.3103 100.015C81.4524 100.585 81.8107 101.078 82.3093 101.389C82.81 101.687 83.408 101.777 83.9743 101.639C84.0847 101.611 84.2015 101.628 84.2991 101.687C84.3967 101.746 84.467 101.84 84.4946 101.951C84.5222 102.061 84.5048 102.178 84.4462 102.276C84.3877 102.373 84.2928 102.444 84.1824 102.471C83.9437 102.516 83.7007 102.532 83.4581 102.521V102.521Z" fill="#231F20"/>
<path d="M89.5021 109.065C88.4237 108.769 87.4601 108.154 86.7382 107.3C86.4389 106.982 86.2284 106.591 86.1276 106.165C86.0268 105.74 86.0392 105.296 86.1638 104.877C86.5953 105.415 87.1395 105.852 87.7579 106.157C88.3764 106.462 89.0541 106.628 89.7435 106.642L89.5021 109.065Z" fill="#231F20"/>
<path d="M89.5021 109.481H89.4188C88.2546 109.168 87.2126 108.509 86.4302 107.592C86.0758 107.217 85.828 106.755 85.7124 106.253C85.5967 105.751 85.6175 105.227 85.7725 104.736C85.797 104.667 85.8404 104.606 85.8978 104.56C85.9552 104.515 86.0243 104.486 86.0971 104.478C86.1706 104.465 86.2462 104.473 86.3154 104.501C86.3845 104.529 86.4445 104.576 86.4884 104.636C86.8855 105.117 87.3803 105.509 87.94 105.784C88.4998 106.06 89.1117 106.213 89.7352 106.234C89.8536 106.238 89.9664 106.285 90.0515 106.368C90.0907 106.412 90.1205 106.463 90.1391 106.519C90.1577 106.575 90.1647 106.634 90.1598 106.692L89.91 109.115C89.9055 109.172 89.8891 109.227 89.8618 109.278C89.8346 109.328 89.7971 109.372 89.7518 109.407C89.6772 109.454 89.5907 109.48 89.5021 109.481V109.481ZM86.4801 105.802C86.5343 106.259 86.7325 106.688 87.0462 107.025C87.6175 107.676 88.3331 108.183 89.1358 108.507L89.2856 107.042C88.2422 106.938 87.2592 106.503 86.4801 105.802V105.802Z" fill="#231F20"/>
<path d="M90.8257 102.23C90.4254 102.217 90.0306 102.133 89.6602 101.98C89.5576 101.938 89.4758 101.857 89.4328 101.755C89.3899 101.653 89.3894 101.537 89.4313 101.435C89.4733 101.332 89.5543 101.25 89.6565 101.207C89.7588 101.164 89.8739 101.164 89.9766 101.206C90.3177 101.361 90.696 101.416 91.0672 101.364C90.8958 100.416 90.5725 99.5026 90.1098 98.6581C90.0612 98.5587 90.0541 98.4441 90.09 98.3395C90.1259 98.2349 90.2019 98.1488 90.3013 98.1003C90.4006 98.0517 90.5152 98.0446 90.6198 98.0805C90.7244 98.1164 90.8105 98.1924 90.859 98.2918C92.3742 101.372 91.8331 101.822 91.6915 101.972C91.4453 102.163 91.1364 102.255 90.8257 102.23V102.23Z" fill="#231F20"/>
<path d="M89.5687 103.92C89.0508 103.933 88.5416 103.785 88.1118 103.495C87.8753 103.315 87.679 103.086 87.5357 102.826C87.3923 102.565 87.305 102.277 87.2793 101.98C87.2711 101.926 87.274 101.87 87.2877 101.817C87.3014 101.764 87.3257 101.714 87.3591 101.671C87.3925 101.627 87.4344 101.591 87.4822 101.564C87.53 101.537 87.5827 101.52 87.6373 101.514C87.7453 101.499 87.8546 101.528 87.9418 101.593C88.0289 101.659 88.087 101.756 88.1035 101.863C88.1147 102.05 88.1659 102.232 88.2535 102.397C88.3411 102.562 88.4631 102.707 88.6113 102.821C88.991 103.049 89.4387 103.138 89.8767 103.071C89.9846 103.053 90.0949 103.078 90.1849 103.14C90.2748 103.202 90.3374 103.297 90.3595 103.404C90.379 103.512 90.3549 103.623 90.2925 103.714C90.2302 103.804 90.1345 103.866 90.0265 103.887C89.8756 103.914 89.722 103.925 89.5687 103.92Z" fill="#231F20"/>
<path d="M88.9776 97.5175C88.9192 97.5168 88.8616 97.5039 88.8085 97.4795C88.7555 97.4551 88.7081 97.4198 88.6696 97.3759C88.5995 97.2886 88.5125 97.2163 88.4138 97.1634C88.3151 97.1104 88.2067 97.078 88.0951 97.0679C87.7883 97.0898 87.4966 97.2095 87.2626 97.4092C87.2229 97.4498 87.1753 97.4817 87.1228 97.5031C87.0703 97.5246 87.0139 97.5351 86.9572 97.5339C86.9005 97.5328 86.8446 97.5201 86.7929 97.4965C86.7413 97.473 86.695 97.4392 86.6569 97.3971C86.6189 97.3551 86.5898 97.3057 86.5715 97.2519C86.5532 97.1982 86.5461 97.1414 86.5506 97.0848C86.555 97.0282 86.5711 96.9732 86.5976 96.923C86.6241 96.8729 86.6606 96.8287 86.7049 96.7931C87.1077 96.4327 87.6296 96.234 88.1701 96.2353C88.3927 96.2513 88.6099 96.3118 88.8087 96.4133C89.0075 96.5149 89.1838 96.6554 89.3273 96.8264C89.3987 96.911 89.4344 97.0201 89.4266 97.1305C89.4188 97.2409 89.3682 97.3439 89.2856 97.4176C89.2436 97.454 89.1946 97.4815 89.1417 97.4987C89.0888 97.5159 89.033 97.5223 88.9776 97.5175V97.5175Z" fill="#231F20"/>
<path d="M91.4834 98.0254C91.4229 98.0368 91.3608 98.0368 91.3003 98.0254C91.251 98.0014 91.207 97.9679 91.1706 97.9269C91.1343 97.8858 91.1065 97.838 91.0887 97.7862C91.0709 97.7344 91.0635 97.6796 91.067 97.6249C91.0704 97.5702 91.0846 97.5167 91.1088 97.4675C91.1983 97.285 91.3279 97.125 91.4879 96.9995C91.6479 96.8741 91.8342 96.7865 92.0329 96.7432C92.2893 96.7287 92.5452 96.7781 92.7777 96.8871C93.0103 96.9961 93.212 97.1613 93.3649 97.3676C93.4039 97.4063 93.4348 97.4524 93.456 97.5031C93.4771 97.5538 93.488 97.6082 93.488 97.6632C93.488 97.7181 93.4771 97.7726 93.456 97.8233C93.4348 97.874 93.4039 97.9201 93.3649 97.9588C93.2871 98.035 93.1824 98.0777 93.0735 98.0777C92.9645 98.0777 92.8599 98.035 92.7821 97.9588C92.5407 97.7007 92.3326 97.5674 92.1827 97.5924C92.0329 97.6174 91.8997 97.8172 91.883 97.8588C91.8369 97.9192 91.7757 97.9664 91.7055 97.9956C91.6354 98.0249 91.5588 98.0351 91.4834 98.0254V98.0254Z" fill="#231F20"/>
<path d="M86.3719 113.628L83.5913 115.001L85.2147 117.216L80.3945 137.797L84.9649 143.001L88.9776 135.94L86.6632 117.241L88.5031 115.243L86.3719 113.628Z" fill="white"/>
<path d="M46.0539 198.832L40.4595 202.629C40.4595 202.629 49.95 218.747 52.589 214.585C53.305 213.436 48.7512 203.936 48.7512 203.936L46.0539 198.832Z" fill="#231F20"/>
<path d="M51.4402 215.7C47.7855 215.65 40.9007 204.152 40.1265 202.845C40.0722 202.754 40.0548 202.645 40.0781 202.542C40.1013 202.438 40.1633 202.347 40.2514 202.288L45.7875 198.491C45.8354 198.458 45.8898 198.434 45.947 198.423C46.0043 198.412 46.0634 198.412 46.1205 198.424C46.1773 198.44 46.2303 198.468 46.2761 198.505C46.3219 198.542 46.3596 198.589 46.3869 198.641L49.1175 203.761C50.5161 206.692 53.6879 213.602 52.9303 214.818C52.7826 215.084 52.5667 215.306 52.3048 215.461C52.043 215.616 51.7445 215.699 51.4402 215.7ZM41.0173 202.754C43.2151 206.417 48.8095 214.834 51.4235 214.868C51.5938 214.864 51.7604 214.817 51.9064 214.729C52.0525 214.641 52.1731 214.517 52.256 214.368C52.5557 213.652 50.4911 208.49 48.3932 204.127L45.8957 199.44L41.0173 202.754Z" fill="#231F20"/>
<path d="M103.355 212.17C103.355 212.17 103.18 218.389 103.746 218.489C104.312 218.589 121.97 216.208 120.629 214.859C119.289 213.51 110.856 211.596 110.856 211.596L103.355 212.17Z" fill="#231F20"/>
<path d="M103.68 218.906C103.338 218.839 102.764 218.739 102.947 212.162C102.951 212.06 102.992 211.963 103.062 211.889C103.133 211.815 103.228 211.77 103.33 211.762L110.822 211.179H110.947C111.821 211.379 119.539 213.161 120.937 214.551C121.034 214.645 121.098 214.769 121.119 214.902C121.14 215.036 121.117 215.173 121.054 215.292C120.105 217.082 104.062 218.906 103.68 218.906ZM103.763 212.561C103.671 214.404 103.738 216.25 103.963 218.081C105.919 218.031 118.548 216.058 120.18 215.017C118.931 214.093 114.019 212.745 110.831 212.012L103.763 212.561Z" fill="#231F20"/>
<path d="M93.5314 147.904H93.4731C93.4175 147.898 93.3636 147.881 93.3148 147.854C93.266 147.826 93.2233 147.789 93.1891 147.745C93.1549 147.701 93.13 147.65 93.1158 147.596C93.1017 147.542 93.0986 147.485 93.1068 147.43C93.7561 142.351 96.9196 122.836 96.9529 122.644C96.9553 122.584 96.9703 122.525 96.9971 122.472C97.0238 122.418 97.0616 122.371 97.1081 122.332C97.1545 122.294 97.2085 122.267 97.2664 122.251C97.3244 122.235 97.385 122.232 97.4443 122.242C97.5035 122.251 97.5601 122.273 97.6103 122.306C97.6605 122.339 97.7031 122.382 97.7353 122.433C97.7676 122.483 97.7887 122.54 97.7973 122.6C97.806 122.659 97.8019 122.72 97.7854 122.778C97.7854 122.977 94.597 142.476 93.9476 147.538C93.9336 147.639 93.8839 147.731 93.8075 147.798C93.7311 147.866 93.6331 147.903 93.5314 147.904Z" fill="#231F20"/>
<path d="M127.847 141.519C141.401 141.519 152.389 130.53 152.389 116.975C152.389 103.419 141.401 92.4305 127.847 92.4305C114.293 92.4305 103.305 103.419 103.305 116.975C103.305 130.53 114.293 141.519 127.847 141.519Z" fill="#231F20"/>
<path d="M127.83 141.943C122.953 141.943 118.182 140.515 114.107 137.834C110.032 135.154 106.831 131.338 104.899 126.86C102.967 122.381 102.389 117.434 103.235 112.63C104.082 107.826 106.317 103.376 109.664 99.8274C113.011 96.2791 117.323 93.7885 122.069 92.6631C126.815 91.5377 131.787 91.8267 136.37 93.4944C140.954 95.1621 144.949 98.1356 147.862 102.048C150.775 105.96 152.479 110.64 152.764 115.509V115.509C153.146 122.117 150.89 128.606 146.491 133.552C142.092 138.497 135.911 141.494 129.304 141.885C128.815 141.924 128.324 141.943 127.83 141.943ZM127.88 92.8218C127.406 92.8218 126.923 92.8218 126.44 92.8218C121.672 93.097 117.092 94.7805 113.28 97.6594C109.469 100.538 106.597 104.483 105.028 108.995C103.459 113.507 103.263 118.382 104.466 123.005C105.669 127.628 108.215 131.79 111.784 134.965C115.353 138.14 119.783 140.185 124.514 140.842C129.245 141.498 134.065 140.736 138.363 138.652C142.661 136.568 146.244 133.256 148.659 129.135C151.074 125.014 152.213 120.269 151.931 115.501V115.501C151.569 109.363 148.878 103.595 144.409 99.3728C139.94 95.1507 134.028 92.7928 127.88 92.7802V92.8218Z" fill="#231F20"/>
<path d="M124.059 141.743C137.613 141.743 148.601 130.755 148.601 117.199C148.601 103.644 137.613 92.6553 124.059 92.6553C110.505 92.6553 99.517 103.644 99.517 117.199C99.517 130.755 110.505 141.743 124.059 141.743Z" fill="#FF5858"/>
<path d="M124.043 142.151C117.497 141.956 111.292 139.193 106.766 134.459C102.241 129.726 99.7591 123.402 99.857 116.855C99.9548 110.307 102.624 104.06 107.289 99.4639C111.954 94.868 118.239 92.2918 124.788 92.2918C131.336 92.2918 137.621 94.868 142.286 99.4639C146.951 104.06 149.62 110.307 149.718 116.855C149.816 123.402 147.334 129.726 142.809 134.459C138.284 139.193 132.078 141.956 125.533 142.151C125.017 142.151 124.517 142.151 124.043 142.151ZM124.092 93.03C123.618 93.03 123.143 93.03 122.669 93.03C116.33 93.2169 110.32 95.8905 105.936 100.473C101.552 105.055 99.1473 111.179 99.2408 117.52C99.3343 123.861 101.919 129.911 106.436 134.362C110.953 138.813 117.039 141.308 123.381 141.308C129.722 141.308 135.809 138.813 140.326 134.362C144.843 129.911 147.427 123.861 147.521 117.52C147.614 111.179 145.209 105.055 140.825 100.473C136.442 95.8905 130.431 93.2169 124.092 93.03V93.03Z" fill="#231F20"/>
<path d="M139.527 108.932C139.368 109.191 139.187 109.436 138.986 109.665L119.938 128.689C119.842 128.842 119.709 128.968 119.551 129.056C119.393 129.143 119.216 129.189 119.035 129.189C118.854 129.189 118.677 129.143 118.519 129.056C118.361 128.968 118.228 128.842 118.132 128.689C114.552 124.998 110.981 121.309 107.417 117.624C107.282 117.523 107.173 117.391 107.1 117.238C107.027 117.086 106.993 116.918 106.999 116.749C107.006 116.58 107.053 116.415 107.138 116.269C107.222 116.123 107.341 115.999 107.484 115.909L110.173 113.486C110.27 113.365 110.393 113.267 110.532 113.199C110.672 113.132 110.825 113.097 110.981 113.097C111.136 113.097 111.289 113.132 111.429 113.199C111.569 113.267 111.691 113.365 111.788 113.486C113.892 115.645 116.003 117.799 118.123 119.947C118.781 120.613 119.272 120.621 119.93 119.947L134.74 105.21C134.836 105.064 134.968 104.945 135.122 104.862C135.276 104.779 135.448 104.735 135.623 104.735C135.797 104.735 135.97 104.779 136.124 104.862C136.278 104.945 136.409 105.064 136.505 105.21C137.338 106.043 138.17 106.876 139.003 107.708C139.19 107.932 139.363 108.168 139.519 108.416L139.527 108.932Z" fill="white"/>
<path d="M100.358 131.087C100.358 131.087 105.353 130.454 106.119 129.938C106.885 129.421 108.991 126.041 110.081 125.775C111.172 125.508 110.972 128.014 110.081 129.038C109.191 130.062 114.302 126.333 115.135 127.165C115.689 127.891 115.989 128.779 115.989 129.692C115.989 130.605 115.689 131.493 115.135 132.219C113.728 133.942 105.286 137.281 100.874 137.497" fill="white"/>
<path d="M100.874 137.872C100.767 137.874 100.664 137.834 100.586 137.761C100.508 137.688 100.462 137.587 100.458 137.481C100.454 137.426 100.462 137.371 100.48 137.319C100.498 137.268 100.525 137.22 100.562 137.179C100.598 137.138 100.642 137.104 100.692 137.08C100.741 137.056 100.794 137.043 100.849 137.039C105.012 136.831 113.478 133.551 114.81 131.911C115.296 131.264 115.558 130.476 115.558 129.667C115.558 128.858 115.296 128.07 114.81 127.423C114.361 127.232 112.063 128.556 111.305 128.997C110.14 129.663 109.898 129.829 109.64 129.48C109.382 129.13 109.515 129.038 109.748 128.772C110.025 128.417 110.217 128.004 110.309 127.564C110.402 127.124 110.392 126.669 110.281 126.233C110.281 126.183 110.231 126.166 110.156 126.233C109.64 126.349 108.491 127.756 107.792 128.68C107.377 129.296 106.884 129.855 106.327 130.346C105.494 130.878 101.249 131.453 100.399 131.561C100.29 131.575 100.18 131.546 100.092 131.478C100.005 131.411 99.9478 131.312 99.9333 131.203C99.9251 131.149 99.928 131.093 99.9417 131.04C99.9554 130.987 99.9797 130.937 100.013 130.894C100.047 130.85 100.088 130.814 100.136 130.787C100.184 130.76 100.237 130.743 100.291 130.737C102.323 130.479 105.394 129.963 105.869 129.655C106.336 129.201 106.762 128.708 107.143 128.181C108.325 126.682 109.224 125.608 109.965 125.433C110.161 125.38 110.369 125.393 110.556 125.472C110.743 125.55 110.898 125.689 110.997 125.866C111.311 126.641 111.311 127.507 110.997 128.281C113.095 127.074 114.752 126.216 115.426 126.89C116.045 127.693 116.381 128.678 116.381 129.692C116.381 130.706 116.045 131.691 115.426 132.494C113.944 134.317 105.436 137.705 100.866 137.93L100.874 137.872Z" fill="#231F20"/>
<path d="M73.1185 108.774C73.1185 108.774 75.2413 130.121 81.4435 130.221C88.9942 130.354 101.898 130.071 101.898 130.071L104.396 138.122C104.396 138.122 84.4155 142.917 76.0072 139.279C67.599 135.641 66.9913 121.246 66.9913 121.246L73.1185 108.774Z" fill="#FF5858"/>
<path d="M87.5623 130.887C84.1491 130.887 81.2686 130.77 80.4611 130.42C78.255 129.446 74.2007 115.434 73.4098 112.662C73.3947 112.608 73.3905 112.551 73.3974 112.495C73.4043 112.44 73.4223 112.386 73.4501 112.337C73.478 112.288 73.5153 112.245 73.5598 112.211C73.6044 112.177 73.6552 112.152 73.7095 112.137C73.7631 112.121 73.8194 112.115 73.8751 112.121C73.9309 112.127 73.9848 112.144 74.0338 112.171C74.0828 112.199 74.1257 112.235 74.1601 112.28C74.1945 112.324 74.2197 112.375 74.234 112.429C76.0239 118.748 79.3872 129.005 80.8108 129.63C82.2343 130.254 94.2307 129.996 101.873 129.63C101.93 129.625 101.987 129.632 102.041 129.65C102.094 129.669 102.144 129.698 102.186 129.736C102.228 129.774 102.262 129.821 102.286 129.873C102.309 129.925 102.322 129.981 102.323 130.037C102.326 130.094 102.318 130.15 102.299 130.204C102.28 130.257 102.251 130.306 102.213 130.348C102.175 130.39 102.129 130.424 102.078 130.448C102.027 130.472 101.971 130.485 101.915 130.487C100.674 130.554 93.3565 130.887 87.5623 130.887Z" fill="#231F20"/>
<path d="M84.9649 140.911C81.8647 141.021 78.7683 140.604 75.8074 139.679C67.8904 136.673 66.6 125.45 66.6 124.967C66.5883 124.856 66.6211 124.744 66.6913 124.657C66.7615 124.57 66.8633 124.513 66.9746 124.501C67.0869 124.489 67.1995 124.522 67.2881 124.592C67.3768 124.662 67.4346 124.764 67.4491 124.876C67.4491 124.992 68.7312 136.057 76.1904 138.871C83.7911 141.735 100.982 138.413 101.165 138.38C101.265 138.38 101.362 138.414 101.44 138.478C101.517 138.541 101.57 138.63 101.59 138.728C101.61 138.826 101.595 138.928 101.547 139.016C101.5 139.105 101.424 139.174 101.332 139.212C95.9335 140.236 90.4585 140.804 84.9649 140.911V140.911Z" fill="#231F20"/>
</svg>
